<svg width="24" height="22" viewBox="0 0 24 22" fill="none" xmlns="http://www.w3.org/2000/svg">
<path d="M16.5647 1.54116V0.129395H14.8706V1.54116H9.12943V0.129395H7.43531V1.54116H0V21.8706H24V1.54116H16.5647ZM7.43531 3.23528V4.64704H9.12943V3.23528H14.8706V4.36469H16.5647V3.23528H22.3059V6.05881H1.69412V3.23528H7.43531ZM1.69412 20.1765V7.75292H22.3059V20.1765H1.69412Z" fill="currentColor"/>
<path d="M8.32939 15.094H5.50586V17.9175H8.32939V15.094Z" fill="currentColor"/>
<path d="M13.4114 15.0938H10.5879V17.9173H13.4114V15.0938Z" fill="currentColor"/>
<path d="M18.4935 15.0938H15.6699V17.9173H18.4935V15.0938Z" fill="currentColor"/>
<path d="M13.4114 10.0117H10.5879V12.8352H13.4114V10.0117Z" fill="currentColor"/>
<path d="M18.4935 10.0117H15.6699V12.8352H18.4935V10.0117Z" fill="currentColor"/>
<path d="M8.32939 10.0117H5.50586V12.8352H8.32939V10.0117Z" fill="currentColor"/>
</svg>
