<?xml version="1.0" encoding="utf-8"?><svg viewBox="0 0 46 46" xmlns="http://www.w3.org/2000/svg" xmlns:xlink="http://www.w3.org/1999/xlink"><style>:root>svg{display:none}:root>svg:target{display:block}</style><svg fill="none" viewBox="0 0 9 6" id="bet__button-down" xmlns="http://www.w3.org/2000/svg"><path d="M.5 1l4 4L8 1" stroke="currentColor"/></svg><svg fill="none" viewBox="0 0 10 6" id="bet__button-up" xmlns="http://www.w3.org/2000/svg"><path d="M1 5l4-4 4 4" stroke="currentColor"/></svg><svg fill="none" viewBox="0 0 46 46" id="important" xmlns="http://www.w3.org/2000/svg"><circle cx="23" cy="23" r="23" fill="#F60"/><path d="M24.185 16.639l-.163 8.86H22.86l-.154-8.86h1.48zm-.722 12.49a.942.942 0 01-.955-.946c0-.264.092-.488.275-.671a.927.927 0 01.68-.284c.258 0 .481.094.67.284a.9.9 0 01.285.67.9.9 0 01-.284.672.932.932 0 01-.671.275z" fill="#fff"/></svg></svg>