<?xml version="1.0" encoding="utf-8"?><svg viewBox="0 0 72 72" xmlns="http://www.w3.org/2000/svg" xmlns:xlink="http://www.w3.org/1999/xlink"><style>:root>svg{display:none}:root>svg:target{display:block}</style><svg fill="none" viewBox="0 0 9 6" id="bet__button-down" xmlns="http://www.w3.org/2000/svg"><path d="M.5 1l4 4L8 1" stroke="currentColor"/></svg><svg fill="none" viewBox="0 0 10 6" id="bet__button-up" xmlns="http://www.w3.org/2000/svg"><path d="M1 5l4-4 4 4" stroke="currentColor"/></svg><svg fill="none" viewBox="0 0 24 22" id="calendar" xmlns="http://www.w3.org/2000/svg"><path d="M16.565 1.541V.13H14.87v1.412H9.129V.13H7.435v1.412H0v20.33h24V1.54h-7.435zm-9.13 1.694v1.412H9.13V3.235h5.742v1.13h1.694v-1.13h5.74V6.06H1.696V3.235h5.74zm-5.74 16.942V7.753h20.61v12.424H1.696z" fill="currentColor"/><path d="M8.33 15.094H5.505v2.824h2.823v-2.824zM13.411 15.094h-2.823v2.823h2.823v-2.823zM18.494 15.094H15.67v2.823h2.824v-2.823zM13.411 10.012h-2.823v2.823h2.823v-2.823zM18.494 10.012H15.67v2.823h2.824v-2.823zM8.33 10.012H5.505v2.823h2.823v-2.823z" fill="currentColor"/></svg><svg fill="none" viewBox="0 0 46 46" id="important" xmlns="http://www.w3.org/2000/svg"><circle cx="23" cy="23" r="23" fill="#F60"/><path d="M24.185 16.639l-.163 8.86H22.86l-.154-8.86h1.48zm-.722 12.49a.942.942 0 01-.955-.946c0-.264.092-.488.275-.671a.927.927 0 01.68-.284c.258 0 .481.094.67.284a.9.9 0 01.285.67.9.9 0 01-.284.672.932.932 0 01-.671.275z" fill="#fff"/></svg><svg fill="none" viewBox="0 0 72 72" id="input-file" xmlns="http://www.w3.org/2000/svg"><circle cx="36" cy="36" r="35" stroke="currentColor" stroke-width="2" stroke-dasharray="4 4"/><path d="M20 37h33M37 20v33" stroke="currentColor" stroke-width="2"/></svg></svg>